<svg width="28" height="28" viewBox="0 0 28 28" fill="none" xmlns="http://www.w3.org/2000/svg">
<path d="M14 7C17.866 7 21 10.134 21 14C21 17.866 17.866 21 14 21H9L8.7959 20.9893C7.85435 20.8938 7.1062 20.1457 7.01074 19.2041L7 19V14C7 10.134 10.134 7 14 7ZM14 8.5C10.9624 8.5 8.5 10.9624 8.5 14V19C8.5 19.2761 8.72386 19.5 9 19.5H14C17.0376 19.5 19.5 17.0376 19.5 14C19.5 10.9624 17.0376 8.5 14 8.5ZM11.3779 13.2227C11.8079 13.2228 12.1552 13.57 12.1553 14C12.1553 14.43 11.8079 14.7772 11.3779 14.7773C10.9478 14.7773 10.5996 14.4301 10.5996 14C10.5996 13.5699 10.9478 13.2227 11.3779 13.2227ZM13.9707 13.2227C14.4008 13.2227 14.748 13.5699 14.748 14C14.748 14.4301 14.4008 14.7773 13.9707 14.7773C13.5406 14.7773 13.1934 14.4301 13.1934 14C13.1934 13.5699 13.5406 13.2227 13.9707 13.2227ZM16.5615 13.2227C16.9915 13.2229 17.3388 13.57 17.3389 14C17.3389 14.43 16.9915 14.7771 16.5615 14.7773C16.1314 14.7773 15.7832 14.4301 15.7832 14C15.7832 13.5699 16.1314 13.2227 16.5615 13.2227Z" fill="#554E46"/>
</svg>
