<svg width="28" height="28" viewBox="0 0 28 28" fill="none" xmlns="http://www.w3.org/2000/svg">
<path d="M14.0014 7C14.2025 7 14.3927 7.09297 14.515 7.2543L18.2732 12.1105C18.4253 12.3074 18.4525 12.5754 18.3438 12.8023C18.2351 13.0293 18.0069 13.1715 17.7569 13.1715H17.3085L19.1346 15.9223C19.2677 16.1246 19.2813 16.3816 19.1672 16.5949C19.053 16.8082 18.8329 16.9422 18.5911 16.9422H17.9389L19.9742 19.9801C20.1101 20.1824 20.1237 20.4422 20.0096 20.6555C19.8954 20.8688 19.678 21 19.4362 21H8.56658C8.32474 21 8.10463 20.866 7.9905 20.6527C7.87637 20.4395 7.88995 20.1797 8.02582 19.9773L10.0612 16.9395H9.40897C9.16713 16.9395 8.94702 16.8055 8.83289 16.5922C8.71876 16.3789 8.73234 16.1191 8.8655 15.9195L10.6916 13.1687H10.2432C9.99321 13.1687 9.76767 13.0266 9.65626 12.7996C9.54484 12.5727 9.57474 12.3074 9.72691 12.1078L13.4878 7.2543C13.6101 7.09297 13.8003 7 14.0014 7ZM11.5802 11.8562H11.9144C12.1563 11.8562 12.3764 11.9902 12.4905 12.2035C12.6046 12.4168 12.591 12.6766 12.4579 12.8762L10.6291 15.627H11.2867C11.5285 15.627 11.7487 15.7609 11.8628 15.9742C11.9769 16.1875 11.9633 16.4473 11.8275 16.6496L9.79213 19.6875H18.2079L16.1726 16.6496C16.0367 16.4473 16.0231 16.1875 16.1372 15.9742C16.2514 15.7609 16.4715 15.627 16.7133 15.627H17.371L15.5448 12.8762C15.4117 12.6738 15.3981 12.4168 15.5122 12.2035C15.6264 11.9902 15.8465 11.8562 16.0883 11.8562H16.4226L14.0014 8.72539L11.5802 11.8562Z" fill="#554E46"/>
</svg>
