<svg width="28" height="28" viewBox="0 0 28 28" fill="none" xmlns="http://www.w3.org/2000/svg">
<path d="M16.4863 7.59961C18.2251 7.59961 19.6356 9.00832 19.6387 10.7471L19.6455 14.8604C20.4278 15.1319 20.9902 15.8743 20.9902 16.749L20.9795 16.9531C20.877 17.9615 20.0256 18.7489 18.9902 18.749C17.9548 18.749 17.1035 17.9616 17.001 16.9531L16.9902 16.749C16.9902 15.8704 17.557 15.125 18.3447 14.8564L18.3389 10.749C18.3371 9.72736 17.508 8.90039 16.4863 8.90039C15.4636 8.90052 14.6349 9.7292 14.6348 10.752V12.3594C15.4199 12.6294 15.9844 13.3733 15.9844 14.25C15.9844 15.1266 15.4197 15.8695 14.6348 16.1396V17.2598C14.6348 18.9936 13.2289 20.4001 11.4951 20.4004C9.76125 20.4004 8.35476 18.9946 8.35449 17.2607V13.1426C7.57208 12.8712 7.00991 12.1296 7.00977 11.2549C7.00977 10.1503 7.9052 9.25488 9.00977 9.25488C10.1142 9.25502 11.0098 10.1504 11.0098 11.2549C11.0096 12.1331 10.4425 12.8768 9.65527 13.1455V17.2607C9.65554 18.2766 10.4792 19.0996 11.4951 19.0996C12.5109 19.0993 13.334 18.2757 13.334 17.2598V16.1396C12.5491 15.8695 11.9844 15.1266 11.9844 14.25C11.9844 13.3733 12.5489 12.6294 13.334 12.3594V10.752C13.3341 9.01123 14.7456 7.59974 16.4863 7.59961ZM18.9902 16.0488C18.6036 16.0488 18.29 16.3624 18.29 16.749C18.2903 17.1354 18.6038 17.4492 18.9902 17.4492C19.3765 17.449 19.6902 17.1353 19.6904 16.749C19.6904 16.3625 19.3767 16.049 18.9902 16.0488ZM13.9844 13.5498C13.5978 13.5498 13.2842 13.8634 13.2842 14.25C13.2842 14.6366 13.5978 14.9502 13.9844 14.9502C14.371 14.9502 14.6846 14.6366 14.6846 14.25C14.6846 13.8634 14.371 13.5498 13.9844 13.5498ZM9.00977 10.5547C8.62317 10.5547 8.30957 10.8683 8.30957 11.2549C8.30975 11.6413 8.62328 11.9551 9.00977 11.9551C9.39613 11.9549 9.70978 11.6412 9.70996 11.2549C9.70996 10.8684 9.39625 10.5548 9.00977 10.5547Z" fill="#554E46"/>
</svg>
