<svg width="28" height="28" viewBox="0 0 28 28" fill="none" xmlns="http://www.w3.org/2000/svg">
<path d="M18.1562 8.3125H19.4688C19.7094 8.3125 19.9062 8.50937 19.9062 8.75V19.25C19.9062 19.4906 19.7094 19.6875 19.4688 19.6875H17.2512C17.1828 20.1715 16.9996 20.6172 16.7344 21H19.4688C20.434 21 21.2188 20.2152 21.2188 19.25V8.75C21.2188 7.78477 20.434 7 19.4688 7H12.4688C11.5035 7 10.7188 7.78477 10.7188 8.75V10.9375H12.0312V8.75C12.0312 8.50937 12.2281 8.3125 12.4688 8.3125H13.7812V10.2812C13.7812 10.6449 14.0738 10.9375 14.4375 10.9375H17.5C17.8637 10.9375 18.1562 10.6449 18.1562 10.2812V8.3125ZM16.8438 8.3125V9.625H15.0938V8.3125H16.8438ZM14.6562 19.25C14.6562 19.4906 14.4594 19.6875 14.2188 19.6875H8.96875C8.72812 19.6875 8.53125 19.4906 8.53125 19.25V16.1875H14.6562V19.25ZM7.21875 15.8539V19.25C7.21875 20.2152 8.00352 21 8.96875 21H14.2188C15.184 21 15.9688 20.2152 15.9688 19.25V15.8539C16.2367 15.6133 16.4062 15.2633 16.4062 14.875V13.5625C16.4062 12.8379 15.8184 12.25 15.0938 12.25H8.09375C7.36914 12.25 6.78125 12.8379 6.78125 13.5625V14.875C6.78125 15.2633 6.95078 15.6133 7.21875 15.8539ZM8.09375 14.875V13.5625H15.0938V14.875H8.09375Z" fill="black"/>
<path d="M18.1562 8.3125H19.4688C19.7094 8.3125 19.9062 8.50937 19.9062 8.75V19.25C19.9062 19.4906 19.7094 19.6875 19.4688 19.6875H17.2512C17.1828 20.1715 16.9996 20.6172 16.7344 21H19.4688C20.434 21 21.2188 20.2152 21.2188 19.25V8.75C21.2188 7.78477 20.434 7 19.4688 7H12.4688C11.5035 7 10.7188 7.78477 10.7188 8.75V10.9375H12.0312V8.75C12.0312 8.50937 12.2281 8.3125 12.4688 8.3125H13.7812V10.2812C13.7812 10.6449 14.0738 10.9375 14.4375 10.9375H17.5C17.8637 10.9375 18.1562 10.6449 18.1562 10.2812V8.3125ZM16.8438 8.3125V9.625H15.0938V8.3125H16.8438ZM14.6562 19.25C14.6562 19.4906 14.4594 19.6875 14.2188 19.6875H8.96875C8.72812 19.6875 8.53125 19.4906 8.53125 19.25V16.1875H14.6562V19.25ZM7.21875 15.8539V19.25C7.21875 20.2152 8.00352 21 8.96875 21H14.2188C15.184 21 15.9688 20.2152 15.9688 19.25V15.8539C16.2367 15.6133 16.4062 15.2633 16.4062 14.875V13.5625C16.4062 12.8379 15.8184 12.25 15.0938 12.25H8.09375C7.36914 12.25 6.78125 12.8379 6.78125 13.5625V14.875C6.78125 15.2633 6.95078 15.6133 7.21875 15.8539ZM8.09375 14.875V13.5625H15.0938V14.875H8.09375Z" fill="#554E46"/>
</svg>
