<svg width="28" height="28" viewBox="0 0 28 28" fill="none" xmlns="http://www.w3.org/2000/svg">
<path d="M8.50153 17.5164C8.32471 17.3396 8.32471 17.0487 8.50153 16.8719L9.62518 15.7482L10.4836 16.6066C10.6604 16.7835 10.9513 16.7835 11.1281 16.6066C11.3049 16.4298 11.3049 16.1389 11.1281 15.9621L10.2697 15.1037L11.4504 13.923L12.3088 14.7814C12.4856 14.9582 12.7765 14.9582 12.9534 14.7814C13.1302 14.6046 13.1302 14.3137 12.9534 14.1369L12.0949 13.2785L13.2756 12.0978L14.134 12.9562C14.3109 13.133 14.6018 13.133 14.7786 12.9562C14.9554 12.7794 14.9554 12.4885 14.7786 12.3117L13.9201 11.4532L15.1008 10.2726L15.9593 11.131C16.1361 11.3078 16.427 11.3078 16.6038 11.131C16.7806 10.9542 16.7806 10.6633 16.6038 10.4865L15.7454 9.62803L16.869 8.50438C17.0458 8.32756 17.3367 8.32756 17.5135 8.50438L19.4956 10.4865C19.6724 10.6633 19.6724 10.9542 19.4956 11.131L11.1281 19.4985C10.9513 19.6753 10.6604 19.6753 10.4836 19.4985L8.50153 17.5164ZM9.51395 20.4653C10.2269 21.1782 11.382 21.1782 12.0949 20.4653L20.4653 12.0978C21.1782 11.3848 21.1782 10.2298 20.4653 9.51681L18.486 7.53473C17.7731 6.82176 16.618 6.82176 15.9051 7.53473L7.53473 15.9022C6.82176 16.6152 6.82176 17.7702 7.53473 18.4832L9.51681 20.4653H9.51395Z" fill="#554E46"/>
</svg>
