<svg width="28" height="28" viewBox="0 0 28 28" fill="none" xmlns="http://www.w3.org/2000/svg">
<path d="M16 19C16 19.5523 15.5523 20 15 20C14.4477 20 14 19.5523 14 19H13V20C13 20.5523 12.5523 21 12 21C11.4477 21 11 20.5523 11 20V19H9.01953C7.90426 19 7 18.1216 7 17.0381V8.96191C7 7.8784 7.90426 7 9.01953 7H18.9805L19.1875 7.00977C20.2056 7.1104 21 7.94624 21 8.96191V17.0381C21 18.0538 20.2056 18.8896 19.1875 18.9902L18.9805 19H16ZM8.2002 16.7998V17.0381C8.2002 17.4264 8.53408 17.7998 9.01953 17.7998H18.9805C19.4659 17.7998 19.7998 17.4264 19.7998 17.0381V16.7998H8.2002ZM9.01953 8.2002C8.53408 8.2002 8.2002 8.57358 8.2002 8.96191V15.5H19.7998V8.96191C19.7998 8.57358 19.4659 8.2002 18.9805 8.2002H9.01953ZM12.6367 10.8496C13.3893 10.8497 13.9459 11.2052 14.3389 11.4453C14.7639 11.7051 15.0254 11.8495 15.3633 11.8496C15.5091 11.8496 15.7655 11.732 16.0654 11.4922C16.1973 11.3867 16.3108 11.2796 16.3916 11.1982C16.4316 11.1579 16.4632 11.1245 16.4834 11.1025C16.4933 11.0918 16.5006 11.0839 16.5049 11.0791L16.5088 11.0742C16.7437 10.8032 17.1535 10.7741 17.4248 11.0088C17.6963 11.2436 17.726 11.6533 17.4912 11.9248L17 11.5L17.4912 11.9258H17.4902L17.4893 11.9277C17.4884 11.9287 17.4876 11.9302 17.4863 11.9316C17.4837 11.9347 17.4799 11.9385 17.4756 11.9434C17.4669 11.9532 17.4545 11.967 17.4395 11.9834C17.4094 12.0161 17.3664 12.061 17.3135 12.1143C17.2081 12.2203 17.0575 12.3634 16.877 12.5078C16.5516 12.768 15.9888 13.1504 15.3633 13.1504C14.6107 13.1503 14.0541 12.7948 13.6611 12.5547C13.2361 12.2949 12.9746 12.1505 12.6367 12.1504C12.3044 12.1504 12.0448 12.2997 11.8486 12.4795C11.7512 12.5688 11.6767 12.6586 11.6279 12.7256C11.6039 12.7586 11.5869 12.7851 11.5771 12.8008C11.5739 12.8061 11.5709 12.8099 11.5693 12.8125C11.397 13.1265 11.0031 13.2419 10.6885 13.0703C10.3736 12.8983 10.2578 12.5035 10.4297 12.1885V12.1875L10.4307 12.1865L10.4316 12.1846C10.4326 12.1829 10.4343 12.1809 10.4355 12.1787C10.438 12.1743 10.4407 12.1684 10.4443 12.1621C10.4517 12.1494 10.4615 12.1327 10.4736 12.1133C10.4979 12.0744 10.5322 12.0224 10.5762 11.9619C10.6638 11.8415 10.7945 11.6811 10.9697 11.5205C11.319 11.2004 11.8782 10.8496 12.6367 10.8496Z" fill="#554E46"/>
</svg>
