<svg width="28" height="28" viewBox="0 0 28 28" fill="none" xmlns="http://www.w3.org/2000/svg">
<path d="M17.5301 18.4598L9.54023 10.4699C8.77187 11.4406 8.3125 12.6656 8.3125 14C8.3125 17.1418 10.8582 19.6875 14 19.6875C15.3344 19.6875 16.5621 19.2281 17.5301 18.4598ZM18.457 17.5328C19.2254 16.5621 19.6848 15.3371 19.6848 14.0027C19.6848 10.8609 17.1391 8.31523 13.9973 8.31523C12.6629 8.31523 11.4352 8.77461 10.4672 9.54297L18.4598 17.5301L18.457 17.5328ZM7 14C7 10.1336 10.1336 7 14 7C17.8664 7 21 10.1336 21 14C21 17.8664 17.8664 21 14 21C10.1336 21 7 17.8664 7 14Z" fill="#554E46"/>
</svg>
