<svg width="28" height="28" viewBox="0 0 28 28" fill="none" xmlns="http://www.w3.org/2000/svg">
<path d="M10.5195 7C9.40425 7 8.5 7.8784 8.5 8.96191V19.0381C8.5 20.1216 9.40425 21 10.5195 21H17.4805L17.6875 20.9902C18.7056 20.8896 19.5 20.0538 19.5 19.0381V8.96191C19.5 7.94624 18.7056 7.1104 17.6875 7.00977L17.4805 7H10.5195ZM18.2998 19.0381C18.2998 19.4264 17.9659 19.7998 17.4805 19.7998H16.2002V17.5H18.2998V19.0381ZM15.2002 19.7998H12.7998V17.5H15.2002V19.7998ZM11.7998 19.7998H10.5195C10.0341 19.7998 9.7002 19.4264 9.7002 19.0381V17.5H11.7998V19.7998ZM11.7998 16.5H9.7002V14.5H11.7998V16.5ZM15.2002 16.5H12.7998V14.5H15.2002V16.5ZM18.2998 16.5H16.2002V14.5H18.2998V16.5ZM18.2998 13.5H16.2002V11.5H18.2998V13.5ZM15.2002 13.5H12.7998V11.5H15.2002V13.5ZM11.7998 13.5H9.7002V11.5H11.7998V13.5ZM17.4805 8.2002C17.9659 8.2002 18.2998 8.57358 18.2998 8.96191V10.5H16.2002V8.2002H17.4805ZM15.2002 10.5H12.7998V8.2002H15.2002V10.5ZM11.7998 10.5H9.7002V8.96191C9.7002 8.57358 10.0341 8.2002 10.5195 8.2002H11.7998V10.5Z" fill="#554E46"/>
</svg>
