<svg width="105" height="28" viewBox="0 0 105 28" fill="none" xmlns="http://www.w3.org/2000/svg">
<path d="M38.7138 6.87891H42.0765L47.5495 20.4353H44.9713L43.8565 17.6116H36.904L35.7892 20.4353H33.2271L38.7161 6.87891H38.7138ZM43.0353 15.5219L40.4044 8.83093H40.3699L37.7206 15.5219H43.0353Z" fill="#6E04BD"/>
<path d="M49.2958 10.7465H51.5597V12.2994H51.5941C51.9428 11.2373 52.8328 10.7144 54.2939 10.7144H55.356V12.7008H54.2572C52.0804 12.7008 51.5758 13.2054 51.5758 15.263V20.4401H49.2935V10.7511L49.2958 10.7465Z" fill="#6E04BD"/>
<path d="M57.2989 17.8042V12.6638H56.0098V10.7462H57.2989V8.34229H59.5973V10.7462H62.1939V12.6638H59.5973V17.3684C59.5973 18.2744 59.8244 18.4648 60.9047 18.4648H62.1939V20.4352H59.9987C57.9595 20.4352 57.2989 19.6347 57.2989 17.8042Z" fill="#6E04BD"/>
<path d="M63.3076 15.6092C63.3076 11.7923 64.3696 10.6064 68.1865 10.6064C72.0034 10.6064 72.9255 11.7396 72.9255 15.3454V16.3203H65.59V16.4075C65.59 18.2379 66.0258 18.7082 68.2737 18.7082C70.0674 18.7082 70.6248 18.3778 70.6248 17.3319V17.2791H72.9072V17.4351C72.9072 19.7358 71.6869 20.573 68.2553 20.573C64.3696 20.573 63.3076 19.4399 63.3076 15.6069V15.6092ZM70.6455 14.5816V14.4784C70.6455 12.9438 70.2097 12.4736 68.1888 12.4736C66.168 12.4736 65.6266 12.9278 65.5922 14.5839H70.6455V14.5816Z" fill="#6E04BD"/>
<path d="M74.5692 10.7461H76.8515V12.1751H76.8859C77.2529 11.1131 78.1062 10.6245 79.9 10.6245C81.6937 10.6245 82.5677 11.1291 83.0012 12.2783H83.0173C83.4026 11.058 84.3935 10.6245 86.2951 10.6245C89.066 10.6245 89.8666 11.7393 89.8666 14.7556V20.4351H87.5659V14.8933C87.5659 13.1339 87.3044 12.6454 85.5611 12.6454C83.6962 12.6454 83.3476 13.15 83.3476 14.9277V20.4351H81.0652V14.8933C81.0652 13.1339 80.8037 12.6454 79.0444 12.6454C77.2851 12.6454 76.8653 13.0995 76.8653 14.9277V20.4351H74.5669V10.7461H74.5692Z" fill="#6E04BD"/>
<path d="M91.6831 6.87891H93.9677V9.2851H91.6831V6.87891ZM91.6831 10.7463H93.9677V20.4353H91.6831V10.7463Z" fill="#6E04BD"/>
<path d="M96.4099 19.5798C96.0085 19.1279 95.8364 18.5705 95.8364 17.6117V17.3319H98.1348V17.4718C98.1348 17.9604 98.222 18.2563 98.4835 18.465C98.7266 18.6737 99.1968 18.7632 100.383 18.7632C101.445 18.7632 102.073 18.7288 102.369 18.4834C102.631 18.309 102.699 18.0475 102.699 17.6828C102.699 17.1942 102.578 16.9327 102.3 16.7928C102.057 16.6529 101.656 16.6024 99.9125 16.4809C98.2403 16.3754 97.1783 16.2354 96.6209 15.7836C96.1163 15.3821 95.8708 14.7903 95.8708 13.6572C95.8708 12.5241 96.1507 11.8107 96.7081 11.3749C97.4398 10.7831 98.5018 10.6064 100.227 10.6064C102.337 10.6064 103.381 10.9046 104.025 11.5653C104.461 12.0355 104.583 12.68 104.583 13.5333V13.6916H102.316V13.6733C102.316 13.203 102.248 12.9071 102.021 12.7328C101.725 12.4713 101.114 12.4025 100.224 12.4025C99.268 12.4025 98.6899 12.4552 98.4124 12.6984C98.2036 12.8567 98.1165 13.0654 98.1165 13.4668C98.1165 13.937 98.238 14.1297 98.4651 14.2674C98.7266 14.4073 99.1808 14.4577 100.523 14.5472C102.615 14.7032 103.606 14.8431 104.2 15.2789C104.81 15.7331 105 16.4992 105 17.4901C105 18.66 104.739 19.355 104.112 19.8252C103.415 20.3826 102.266 20.5753 100.383 20.5753C98.0477 20.5753 97.0361 20.2771 96.4099 19.5821V19.5798Z" fill="#6E04BD"/>
<path d="M15.4877 0C25.4979 0 28.6404 3.1815 28.6404 13.4692C28.6404 23.7569 25.3511 27.3261 14.7629 27.3261C14.7101 27.3261 14.6597 27.3261 14.6092 27.3261C14.5588 27.3261 14.506 27.3261 14.4555 27.3261C14.412 27.3261 14.3661 27.3261 14.3225 27.3261C14.2789 27.3261 14.233 27.3261 14.1895 27.3261C14.1367 27.3261 14.0862 27.3261 14.0358 27.3261C13.9853 27.3261 13.9325 27.3261 13.8821 27.3261C3.28931 27.3261 0 24.0964 0 13.4692C0 3.1815 3.14251 0 13.1527 0H15.4877ZM10.8933 4.90185L5.79414 16.1369C5.6611 16.4397 5.87443 16.7883 6.19556 16.7883H12.7467L15.4442 22.7247H21.9953C22.321 22.7247 22.5366 22.376 22.3967 22.0732L19.9997 16.7906L12.765 16.7792L17.8664 5.54412C17.9995 5.24134 17.7861 4.89268 17.465 4.89268L10.8979 4.90415L10.8933 4.90185Z" fill="#6E04BD"/>
</svg>
