<svg width="29" height="28" viewBox="0 0 29 28" fill="none" xmlns="http://www.w3.org/2000/svg">
<path d="M15.4877 0C25.4979 0 28.6404 3.1815 28.6404 13.4692C28.6404 23.7569 25.3511 27.3261 14.7629 27.3261C14.7101 27.3261 14.6597 27.3261 14.6092 27.3261C14.5588 27.3261 14.506 27.3261 14.4555 27.3261C14.412 27.3261 14.3661 27.3261 14.3225 27.3261C14.2789 27.3261 14.233 27.3261 14.1895 27.3261C14.1367 27.3261 14.0862 27.3261 14.0358 27.3261C13.9853 27.3261 13.9325 27.3261 13.8821 27.3261C3.28931 27.3261 0 24.0964 0 13.4692C0 3.1815 3.14251 0 13.1527 0H15.4877ZM10.8933 4.90185L5.79414 16.1369C5.6611 16.4397 5.87443 16.7883 6.19556 16.7883H12.7467L15.4442 22.7247H21.9953C22.321 22.7247 22.5366 22.376 22.3967 22.0732L19.9997 16.7906L12.765 16.7792L17.8664 5.54412C17.9995 5.24134 17.7861 4.89268 17.465 4.89268L10.8979 4.90415L10.8933 4.90185Z" fill="#6E04BD"/>
</svg>
